<svg xmlns="http://www.w3.org/2000/svg" width="219" height="218" fill="none"><g clip-path="url(#a)"><path fill="color(display-p3 1 .8078 0)" d="m130.45 111.674-2.76 2.749-5.046 5.037-2.698 2.687-4.996 4.975-2.711 2.7-2.96 3.121-3.223-3.121-2.71-2.7-15.051-14.988c-4.56-4.54-5.196-11.505-1.936-16.73a13.306 13.306 0 0 1 1.936-2.437 13.478 13.478 0 0 1 3.523-2.538 13.607 13.607 0 0 1 4.309-1.293 12.14 12.14 0 0 1 1.786-.125c2.161 0 4.234.498 6.108 1.418a13.486 13.486 0 0 1 3.522 2.538l1.599 1.592 1.149-1.132a14.199 14.199 0 0 1 4.421-2.998 14.256 14.256 0 0 1 5.658-1.157 14.392 14.392 0 0 1 5.658 1.157c.5.212.988.46 1.463.734a13.941 13.941 0 0 1 4.595 4.242c3.348 5.012 2.799 11.866-1.636 16.269z"/><path fill="color(display-p3 .1686 .4745 .8392)" d="M217.189 95.404c-.213-1.666-.45-3.333-.737-4.975a106.558 106.558 0 0 0-8.331-26.755 87.747 87.747 0 0 0-2.461-4.975 108.268 108.268 0 0 0-19.847-26.755 101.354 101.354 0 0 0-5.383-4.975C161.356 10.489 136.475.512 109.296.512c-27.167 0-52.048 9.976-71.134 26.457a101.522 101.522 0 0 0-5.383 4.975A108.524 108.524 0 0 0 12.93 58.7a87.74 87.74 0 0 0-2.46 4.975A106.564 106.564 0 0 0 2.14 90.43a107.391 107.391 0 0 0-1.562 18.346 107.415 107.415 0 0 0 1.562 18.347 106.562 106.562 0 0 0 8.331 26.755 87.361 87.361 0 0 0 2.46 4.975 108.53 108.53 0 0 0 19.848 26.755 102.039 102.039 0 0 0 5.383 4.976c19.086 16.48 43.967 26.456 71.134 26.456 27.179 0 52.06-9.976 71.134-26.456l.002-.002a101.791 101.791 0 0 0 5.381-4.974 108.258 108.258 0 0 0 19.847-26.755 87.369 87.369 0 0 0 2.461-4.975 106.556 106.556 0 0 0 8.331-26.755c.287-1.641.524-3.308.737-4.975.55-4.379.825-8.844.825-13.372 0-4.527-.275-8.993-.825-13.37zm-5.808-4.975H190.26c-1.212-9.39-3.36-18.359-6.296-26.755H202.6a102 102 0 0 1 8.781 26.755zm-24.931 18.346c0 4.528-.225 8.993-.65 13.372h-26.579c.237-4.404.362-8.868.362-13.372 0-4.502-.125-8.968-.362-13.37H185.8a138.4 138.4 0 0 1 .65 13.37zm-154.296 0c0-4.527.225-8.993.65-13.37H59.37a248.723 248.723 0 0 0-.362 13.37c0 4.504.125 8.968.362 13.372H32.804a138.65 138.65 0 0 1-.65-13.372zm122.433 0a234.5 234.5 0 0 1-.376 13.372H127.02l-4.509 4.49c0 .162-.013.323-.013.485-.249 9.304-.674 18.297-1.286 26.755h-23.82c-.612-8.458-1.036-17.451-1.286-26.755v-.199l-2.405-2.388-2.404-2.388H64.38c-.25-4.391-.375-8.856-.375-13.372 0-4.514.125-8.98.375-13.37h16.4a17.761 17.761 0 0 1 3.085-4.976H64.73c.736-9.316 2.036-18.31 3.872-26.755H92.37a585.432 585.432 0 0 0-1.112 21.593 18.176 18.176 0 0 1 5.047-1.157 553.66 553.66 0 0 1 1.086-20.436h23.82a593.03 593.03 0 0 1 1.099 20.71 19.07 19.07 0 0 1 5.034 1.194 601.804 601.804 0 0 0-1.112-21.904h23.757c1.836 8.446 3.136 17.44 3.872 26.755H134.5a17.883 17.883 0 0 1 3.273 4.975h16.437c.251 4.391.376 8.857.376 13.371zm-4.597 45.102h-23.757a615.33 615.33 0 0 0 1.249-26.755h26.38c-.736 9.316-2.036 18.309-3.872 26.755zm-10.617 31.73h-16.6c.087-.547.175-1.095.262-1.667 1.137-7.525 2.074-15.971 2.811-25.088h23.008c-2.124 8.608-4.822 16.568-8.045 23.695a115.373 115.373 0 0 1-1.436 3.06zm-23.058 25.175c1.887-3.918 3.823-10.187 5.634-20.199h14.788c-6.033 10.609-13.027 17.525-20.422 20.199zm-34.46-20.199h14.8c1.799 10.012 3.735 16.294 5.634 20.211-7.395-2.674-14.39-9.589-20.435-20.211zm-4.073-8.036c-3.222-7.127-5.908-15.087-8.03-23.695h22.994c.737 9.117 1.686 17.563 2.823 25.088.087.572.175 1.12.262 1.667H79.219c-.487-.995-.962-2.015-1.437-3.06zM64.73 127.122h26.38c.237 9.304.662 18.284 1.26 26.755H68.603c-1.836-8.446-3.136-17.439-3.872-26.755zm35.673 55.351c-1.05-7.115-1.936-15.076-2.636-23.621h23.07c-.699 8.545-1.586 16.506-2.635 23.621-.163 1.082-.325 2.127-.475 3.134H100.89a268.07 268.07 0 0 1-.487-3.134zM79.219 31.944h16.612c-.087.548-.175 1.095-.262 1.667-1.137 7.525-2.086 15.97-2.823 25.088H69.751c2.123-8.607 4.809-16.568 8.031-23.695.475-1.045.95-2.065 1.437-3.06zm23.07-25.188c-1.899 3.919-3.835 10.2-5.633 20.213H81.854C87.9 16.346 94.894 9.43 102.29 6.756zm34.448 20.213h-14.788c-1.811-10.013-3.747-16.282-5.634-20.2 7.395 2.674 14.389 9.59 20.422 20.2zm4.072 8.035c3.223 7.127 5.921 15.088 8.045 23.695h-23.008c-.737-9.117-1.674-17.563-2.811-25.088-.087-.572-.175-1.12-.262-1.667h16.6c.487.995.962 2.015 1.436 3.06zm-22.607.075c1.049 7.115 1.936 15.075 2.635 23.62h-23.07c.7-8.545 1.586-16.505 2.636-23.62.162-1.083.324-2.127.474-3.135h16.85c.15 1.008.312 2.052.475 3.135zm36.897 28.595h23.595c3.047 8.347 5.27 17.327 6.532 26.755h-26.343c-.724-9.291-1.998-18.272-3.784-26.755zm-1.125-4.975c-2.235-9.354-5.12-18.036-8.605-25.735-.15-.348-.312-.684-.475-1.02h15.901c6.37 7.65 11.778 16.692 15.95 26.755h-22.771zm-11.554-31.73c-4.021-7.6-8.555-13.67-13.427-18.073 10.068 3.557 19.335 9.79 27.342 18.073H142.42zm-25.555 0h-15.126c3.772-20.35 7.519-21.481 7.557-21.481.05 0 3.797 1.132 7.569 21.48zm-40.681 0H62.256c8.018-8.297 17.286-14.516 27.366-18.073-4.883 4.39-9.418 10.46-13.44 18.073zm-2.474 4.975c-.162.336-.325.672-.474 1.02-3.498 7.7-6.383 16.381-8.618 25.735H41.859c4.16-10.063 9.568-19.105 15.938-26.755H73.71zm-10.217 31.73c-1.786 8.483-3.06 17.464-3.785 26.755h-26.33c1.262-9.428 3.485-18.408 6.533-26.755h23.582zm-3.785 63.448c.725 9.291 2 18.272 3.785 26.755H39.911c-3.048-8.346-5.27-17.327-6.532-26.755h26.33zm4.91 31.73c2.235 9.354 5.12 18.036 8.618 25.735.15.348.312.684.474 1.02H57.797c-6.37-7.65-11.778-16.692-15.938-26.755h22.759zm11.566 31.731c4.022 7.612 8.568 13.681 13.451 18.072-10.079-3.545-19.36-9.776-27.379-18.072h13.927zm25.555 0h15.126c-3.772 20.349-7.519 21.468-7.557 21.48h-.012c-.3-.112-3.922-1.853-7.557-21.48zm40.681 0h13.915c-8.019 8.296-17.287 14.515-27.367 18.072 4.884-4.391 9.418-10.46 13.452-18.072zm18.375-4.976h-15.901c.163-.336.325-.672.475-1.02 3.485-7.699 6.37-16.381 8.605-25.735h22.771c-4.172 10.063-9.58 19.105-15.95 26.755zm-5.696-31.73c1.786-8.483 3.06-17.464 3.784-26.755h26.343c-1.262 9.428-3.485 18.409-6.532 26.755h-23.595zm44.878-95.178h-17.874c-3.922-9.913-9.005-18.931-14.976-26.755h11.404c8.556 7.637 15.838 16.68 21.446 26.755zm-27.441-31.73h-9.481c-4.934-5.635-10.379-10.51-16.225-14.479a103.115 103.115 0 0 1 25.706 14.479zm-100.75-14.49c-5.857 3.967-11.303 8.855-16.237 14.49h-9.493a103.52 103.52 0 0 1 25.73-14.49zM40.062 31.943h11.416c-5.97 7.824-11.054 16.841-14.989 26.755H18.614a103.186 103.186 0 0 1 21.447-26.755zm-24.07 31.73h18.636c-2.935 8.396-5.071 17.364-6.282 26.755H7.211a101.987 101.987 0 0 1 8.78-26.755zM5.576 108.775c0-4.527.3-8.993.874-13.37h21.334a142.702 142.702 0 0 0-.625 13.37c0 4.528.213 8.993.625 13.372H6.449a102.798 102.798 0 0 1-.874-13.372zm1.636 18.347h21.134c1.211 9.391 3.347 18.359 6.282 26.755H15.992a101.991 101.991 0 0 1-8.781-26.755zm11.403 31.73h17.874c3.935 9.913 9.019 18.932 14.99 26.755H40.06a103.189 103.189 0 0 1-21.447-26.755zm27.442 31.731h9.493c4.934 5.634 10.38 10.522 16.238 14.49a103.556 103.556 0 0 1-25.73-14.49zM146.83 205.06c5.846-3.967 11.291-8.843 16.225-14.477h9.481a103.117 103.117 0 0 1-25.706 14.477zm31.701-19.453h-11.404c5.971-7.823 11.054-16.842 14.976-26.755h17.874c-5.608 10.075-12.89 19.118-21.446 26.755zm24.069-31.73h-18.636c2.936-8.396 5.084-17.364 6.296-26.755h21.121a102.005 102.005 0 0 1-8.781 26.755zm-11.778-31.73c.411-4.379.624-8.844.624-13.372 0-4.527-.213-8.993-.624-13.37h21.321a102.844 102.844 0 0 1 0 26.742h-21.321z"/></g><defs><clipPath id="a"><path fill="#fff" d="M0 0h219v218H0z"/></clipPath></defs></svg>